<svg width="33" height="32" viewBox="0 0 33 32" fill="none" xmlns="http://www.w3.org/2000/svg">
<path d="M21.8541 19.172C21.8541 18.745 21.6711 18.511 21.3951 18.344C21.1141 18.183 20.7751 18.161 20.3111 18.161H18.2541V21.921H19.1551V20.552H20.1191C20.4361 20.552 20.6351 20.584 20.7541 20.719C20.9151 20.891 20.8951 21.224 20.8951 21.454V21.918H21.7701V21.178C21.7701 20.845 21.7501 20.678 21.6301 20.49C21.5123 20.349 21.3596 20.2414 21.1871 20.178L21.2121 20.167C21.4571 20.074 21.8531 19.771 21.8531 19.172H21.8541ZM20.6921 19.713L20.6551 19.708C20.5351 19.781 20.3951 19.787 20.2121 19.787H19.1351V18.948H20.2341C20.3951 18.948 20.5511 18.948 20.6771 19.016C20.7398 19.0466 20.7921 19.0952 20.8272 19.1555C20.8622 19.2159 20.8786 19.2853 20.8741 19.355C20.8741 19.516 20.8111 19.64 20.6971 19.714L20.6921 19.713ZM27.5621 21.115H25.8331V21.918H27.5731C28.4731 21.918 28.9731 21.547 28.9731 20.741C28.9731 20.365 28.8851 20.141 28.7241 19.965C28.5211 19.788 28.1971 19.704 27.7511 19.689L27.2501 19.668C27.1101 19.668 27.0111 19.668 26.9071 19.627C26.8477 19.6084 26.7961 19.5709 26.7602 19.5201C26.7242 19.4693 26.7059 19.4082 26.7081 19.346C26.7081 19.226 26.7291 19.127 26.8281 19.07C26.9393 19.008 27.0659 18.9788 27.1931 18.986H28.8281V18.185H27.0311C26.0941 18.185 25.7551 18.768 25.7551 19.305C25.7551 20.508 26.7871 20.445 27.6311 20.466C27.7661 20.466 27.8701 20.486 27.9271 20.543C27.9901 20.586 28.0361 20.684 28.0361 20.783C28.0361 20.887 27.9891 20.986 27.9321 21.023C27.8551 21.095 27.7351 21.116 27.5631 21.116L27.5621 21.115ZM0.499094 0V13.464L1.57809 10.959H3.91109L4.21209 11.579V10.959H6.93609L7.53509 12.318L8.11909 10.97H16.7911C17.1821 10.97 17.5351 11.047 17.7961 11.287V10.979H20.1811V11.287C20.5861 11.058 21.0921 10.979 21.6701 10.979H25.1431L25.4671 11.599V10.979H28.0241L28.3611 11.599V10.974H30.8411V16.241H28.3251L27.8461 15.438V16.219H24.7051L24.3661 15.38H23.5851L23.2261 16.197H21.6111C20.9701 16.197 20.4911 16.062 20.1681 15.88V16.197H16.3131V15.021C16.3131 14.86 16.2771 14.86 16.1781 14.838H16.0371V16.218H8.58409V15.583L8.30309 16.218H6.75109L6.48009 15.583V16.202H3.47509L3.13609 15.369H2.36009L2.02309 16.202H0.496094V31.999H32.2091V22.52C31.8501 22.701 31.3921 22.759 30.9121 22.759H28.6161V22.42C28.3351 22.639 27.8561 22.759 27.3971 22.759H20.1101V21.562C20.1101 21.401 20.0831 21.401 19.9491 21.401H19.8501V22.765H17.4491V21.344C17.0531 21.527 16.5891 21.541 16.2091 21.527H15.9281V22.746H13.0231L12.2991 21.922L11.5381 22.725H6.81909V17.485H11.6321L12.3241 18.288L13.0641 17.485H16.2771C16.6521 17.485 17.2611 17.528 17.5321 17.788V17.465H20.4331C20.7041 17.465 21.2931 17.528 21.6411 17.766V17.449H25.9901V17.766C26.2091 17.547 26.6731 17.449 27.0631 17.449H29.5831V17.766C29.8441 17.569 30.2031 17.449 30.7031 17.449H32.2711V0.001L0.499094 0ZM28.7071 19.937C28.7121 19.948 28.7121 19.958 28.7181 19.964C28.7341 19.973 28.7541 19.973 28.7651 19.989L28.7081 19.942L28.7071 19.937ZM32.2701 17.443H32.3591V18.183H32.2701V17.443ZM32.3161 20.041V20.03C32.2801 19.999 32.2591 19.969 32.2171 19.937C32.0201 19.734 31.6961 19.65 31.2011 19.64L30.7171 19.625C30.5611 19.625 30.4621 19.614 30.3581 19.584C30.2988 19.5653 30.2473 19.5277 30.2114 19.4769C30.1754 19.4262 30.1571 19.3651 30.1591 19.303C30.1591 19.183 30.2001 19.088 30.2791 19.031C30.3781 18.974 30.4761 18.964 30.6381 18.964H32.2691V18.183H30.5611C29.6381 18.183 29.2801 18.766 29.2801 19.303C29.2801 20.5 30.3211 20.443 31.1601 20.464C31.3011 20.464 31.4001 20.479 31.4571 20.541C31.5201 20.584 31.5611 20.682 31.5611 20.781C31.5603 20.8274 31.5492 20.8731 31.5284 20.9147C31.5076 20.9562 31.4778 20.9925 31.4411 21.021C31.3781 21.093 31.2581 21.114 31.0821 21.114H29.3621V21.921H31.0771C31.6381 21.921 32.0561 21.765 32.2801 21.442H32.3161C32.4361 21.259 32.4991 21.041 32.4991 20.745C32.4991 20.421 32.4361 20.224 32.3161 20.041ZM25.2961 18.943V18.167H22.3161V21.943H25.2961V21.162H23.2011V20.407H25.2441V19.626H23.2011V18.949L25.2961 18.943ZM18.5151 11.713H19.4261V15.469H18.5151V11.713ZM17.9991 12.724L17.9881 12.735C17.9881 12.312 17.8161 12.068 17.5351 11.902C17.2481 11.735 16.9111 11.719 16.4581 11.719H14.4061V15.479H15.3061V14.099H16.2651C16.5821 14.099 16.7861 14.14 16.9161 14.26C17.0791 14.443 17.0571 14.765 17.0571 14.989V15.464H17.9581V14.729C17.9581 14.396 17.9371 14.229 17.8111 14.036C17.6939 13.897 17.5436 13.7897 17.3741 13.724C17.5667 13.6389 17.7296 13.4983 17.842 13.3202C17.9544 13.1421 18.0112 12.9345 18.0051 12.724H17.9991ZM16.8591 13.251H16.8431C16.7181 13.323 16.5821 13.328 16.4001 13.328H15.3011V12.495H16.4001C16.5611 12.495 16.7171 12.5 16.8371 12.563C16.9571 12.615 17.0401 12.735 17.0401 12.896C17.0401 13.057 16.9771 13.188 16.8591 13.251ZM21.7281 12.495H22.5671V11.698H21.7071C21.0921 11.698 20.6391 11.839 20.3481 12.137C19.9681 12.537 19.8681 13.058 19.8681 13.621C19.8681 14.304 20.0291 14.73 20.3481 15.048C20.6551 15.365 21.2071 15.465 21.6391 15.465H22.6821L23.0211 14.626H24.8741L25.2231 15.465H27.0351V12.652L28.7341 15.465H30.0051V11.714H29.0881V14.334L27.5161 11.719H26.1561V15.198L24.6451 11.657H23.3061L22.0511 14.621H21.6501C21.4171 14.621 21.1661 14.58 21.0261 14.438C20.8591 14.241 20.7811 13.959 20.7811 13.558C20.7811 13.178 20.8851 12.875 21.0361 12.719C21.2131 12.536 21.4011 12.495 21.7241 12.495H21.7281ZM23.9521 12.355L24.5671 13.844V13.849H23.3271L23.9521 12.355ZM3.67109 14.625L4.01009 15.464H5.83309V12.527L7.13009 15.464H7.90609L9.20209 12.527L9.22309 15.464H10.1441V11.719H8.65509L7.58209 14.255L6.41109 11.714H4.95809V15.266L3.43709 11.714H2.10909L0.516094 15.465H1.47309L1.81709 14.632H3.67209L3.67109 14.625ZM2.75409 12.355L3.36909 13.844L3.36409 13.849H2.14509L2.75409 12.355ZM16.3061 18.161H13.4531L12.3171 19.39L11.2181 18.161H7.63009V21.921H11.1661L12.3061 20.677L13.4061 21.917H15.1391V20.666H16.2591C17.0561 20.666 17.8161 20.447 17.8161 19.406L17.8111 19.401C17.8111 18.36 17.0151 18.161 16.3061 18.161ZM10.7281 21.136H8.52509V20.391H10.4821V19.626H8.52509V18.949H10.7641L11.7441 20.042L10.7231 21.141L10.7281 21.136ZM14.2481 21.579L12.8731 20.047L14.2481 18.574V21.579ZM16.3161 19.901H15.1391V18.942H16.3161C16.6391 18.942 16.8791 19.073 16.8791 19.401C16.8791 19.729 16.6821 19.901 16.3161 19.901ZM13.7911 12.495V11.714H10.8061V15.47H13.7911V14.694H11.6961V13.943H13.7331V13.172H11.6961V12.495H13.7911Z" fill="#016FD0"/>
</svg>
