<svg width="33" height="32" viewBox="0 0 33 32" fill="none" xmlns="http://www.w3.org/2000/svg">
<g clip-path="url(#clip0_1379_22975)">
<path d="M19.9406 15.9981C19.9406 16.5315 19.7825 17.0529 19.4862 17.4964C19.19 17.9399 18.7688 18.2856 18.2761 18.4899C17.7834 18.6941 17.2412 18.7477 16.718 18.6438C16.1949 18.54 15.7143 18.2833 15.3369 17.9064C14.9596 17.5294 14.7025 17.049 14.5981 16.526C14.4937 16.0029 14.5468 15.4607 14.7505 14.9677C14.9543 14.4748 15.2996 14.0534 15.7428 13.7567C16.186 13.46 16.7073 13.3013 17.2406 13.3008H17.2433C18.734 13.3008 19.9406 14.5088 19.9406 15.9981ZM13.0073 13.3301C11.5086 13.3301 10.3073 14.5088 10.3073 15.9834C10.3073 17.4741 11.478 18.6288 12.9833 18.6288C13.4086 18.6288 13.774 18.5448 14.2233 18.3341V17.1701C13.8286 17.5661 13.478 17.7248 13.03 17.7248C12.034 17.7248 11.3273 17.0021 11.3273 15.9754C11.3273 15.0021 12.0566 14.2341 12.9846 14.2341C13.4566 14.2341 13.814 14.4021 14.2246 14.8048V13.6408C13.8514 13.4365 13.4327 13.3297 13.0073 13.3301ZM8.53795 15.3901C7.94462 15.1701 7.76995 15.0261 7.76995 14.7514C7.76995 14.4328 8.08062 14.1888 8.50729 14.1888C8.80329 14.1888 9.04729 14.3101 9.30462 14.5994L9.82195 13.9221C9.41215 13.5569 8.88156 13.3564 8.33262 13.3594C7.43529 13.3594 6.75129 13.9821 6.75129 14.8114C6.75129 15.5101 7.06995 15.8674 7.99929 16.2021C8.38729 16.3394 8.58329 16.4301 8.68329 16.4914C8.77405 16.5457 8.84909 16.6227 8.901 16.7148C8.95291 16.807 8.97989 16.911 8.97929 17.0168C8.97929 17.4274 8.65262 17.7314 8.21129 17.7314C7.73929 17.7314 7.35929 17.4954 7.13262 17.0554L6.49395 17.6701C6.94995 18.3394 7.49662 18.6354 8.24995 18.6354C9.27795 18.6354 9.99795 17.9514 9.99795 16.9701C9.99529 16.1661 9.66195 15.8021 8.53795 15.3901ZM32.5006 13.7314C32.501 13.8338 32.4608 13.9321 32.3888 14.0048C32.3168 14.0775 32.2189 14.1187 32.1166 14.1194C32.0656 14.1196 32.0151 14.1097 31.9679 14.0903C31.9208 14.0708 31.8779 14.0423 31.8419 14.0062C31.8058 13.9701 31.7772 13.9273 31.7578 13.8801C31.7384 13.833 31.7284 13.7825 31.7286 13.7314V13.7274C31.7258 13.6748 31.7338 13.6222 31.752 13.5728C31.7703 13.5234 31.7985 13.4782 31.8348 13.4401C31.8712 13.4019 31.9149 13.3716 31.9634 13.351C32.0119 13.3304 32.0641 13.3199 32.1167 13.3202C32.1694 13.3205 32.2215 13.3315 32.2698 13.3526C32.318 13.3737 32.3615 13.4045 32.3974 13.443C32.4334 13.4815 32.461 13.527 32.4788 13.5766C32.4965 13.6262 32.504 13.6789 32.5006 13.7314ZM32.422 13.7328C32.4227 13.6916 32.4153 13.6507 32.4002 13.6125C32.3851 13.5742 32.3626 13.5392 32.334 13.5096C32.3054 13.4801 32.2712 13.4564 32.2335 13.44C32.1957 13.4236 32.1551 13.4148 32.114 13.4141C32.0726 13.4145 32.0318 13.423 31.9938 13.4393C31.9558 13.4555 31.9215 13.4791 31.8927 13.5088C31.8639 13.5384 31.8413 13.5735 31.8262 13.612C31.8111 13.6504 31.8037 13.6915 31.8046 13.7328C31.8046 13.9088 31.9433 14.0514 32.114 14.0514C32.1551 14.0508 32.1957 14.042 32.2335 14.0256C32.2712 14.0092 32.3054 13.9855 32.334 13.9559C32.3626 13.9263 32.3851 13.8914 32.4002 13.8531C32.4153 13.8148 32.4227 13.7739 32.422 13.7328ZM5.12995 18.5141H6.11929V13.4434H5.12995V18.5141ZM22.066 16.8501L20.714 13.4448H19.634L21.786 18.6448H22.318L24.5086 13.4448H23.4366L22.066 16.8501ZM24.954 18.5141H27.7593V17.6554H25.9433V16.2861H27.6926V15.4274H25.9433V14.3021H27.7593V13.4434H24.954V18.5141ZM32.166 13.7714L32.3126 13.9554H32.1833L32.058 13.7821V13.9554H31.9513V13.5101H32.094C32.202 13.5101 32.262 13.5581 32.262 13.6474C32.2633 13.7088 32.2286 13.7541 32.166 13.7714ZM32.158 13.6488C32.158 13.6101 32.13 13.5914 32.078 13.5914H32.0593V13.7074H32.078C32.13 13.7074 32.158 13.6888 32.158 13.6488ZM30.5206 16.3781L32.1166 18.5141H30.9006L29.5313 16.4768H29.402V18.5141H28.414V13.4434H29.8806C31.0206 13.4434 31.6753 13.9914 31.6753 14.9408C31.6753 15.7181 31.2646 16.2274 30.5206 16.3781ZM30.658 14.9941C30.658 14.5008 30.3233 14.2434 29.7073 14.2434H29.4033V15.7794H29.6926C30.3233 15.7781 30.658 15.5034 30.658 14.9941ZM4.67529 15.9834C4.67341 16.3554 4.59008 16.7225 4.43113 17.0588C4.27219 17.3951 4.0415 17.6925 3.75529 17.9301C3.26862 18.3341 2.71395 18.5154 1.94595 18.5154H0.501953V13.4448H1.95395C3.55662 13.4448 4.67529 14.4861 4.67529 15.9834ZM3.65662 15.9754C3.65662 15.4901 3.45129 15.0181 3.10862 14.7128C2.78195 14.4168 2.39395 14.3021 1.75529 14.3021H1.48995V17.6554H1.75529C2.39395 17.6554 2.79795 17.5328 3.10862 17.2528C3.44995 16.9488 3.65662 16.4621 3.65662 15.9754Z" fill="black"/>
<path d="M19.4871 17.4964C19.7834 17.0529 19.9415 16.6095 19.9415 15.9981C19.9415 14.9855 19.376 14.1868 18.7611 13.7567C18.2077 13.3696 17.6219 13.3008 17.2415 13.3008C16.7342 13.3008 16.1869 13.46 15.7437 13.7567C15.3005 14.0534 14.9552 14.4748 14.7514 14.9677C14.5477 15.4607 14.4947 16.0029 14.599 16.526C14.7034 17.049 14.9605 17.5294 15.3378 17.9064C15.7152 18.2833 16.1958 18.54 16.719 18.6438C17.2421 18.7477 17.7843 18.6941 18.2771 18.4899C18.7698 18.2856 19.1909 17.9399 19.4871 17.4964Z" fill="url(#paint0_linear_1379_22975)"/>
</g>
<defs>
<linearGradient id="paint0_linear_1379_22975" x1="17.2442" y1="13.3008" x2="17.2442" y2="18.6954" gradientUnits="userSpaceOnUse">
<stop stop-color="#E55C20"/>
<stop offset="1" stop-color="#F9A021"/>
</linearGradient>
<clipPath id="clip0_1379_22975">
<rect width="32" height="32" fill="white" transform="translate(0.5)"/>
</clipPath>
</defs>
</svg>
