<svg width="42" height="32" viewBox="0 0 42 32" fill="none" xmlns="http://www.w3.org/2000/svg">
<g clip-path="url(#clip0_1379_18335)">
<path d="M7.81515 31.8396V29.7216C7.81515 28.9096 7.32084 28.3802 6.47356 28.3802C6.05 28.3802 5.59107 28.5214 5.27332 28.9803C5.02632 28.592 4.67336 28.3802 4.14383 28.3802C3.79071 28.3802 3.4379 28.486 3.15537 28.8744V28.4508H2.41406V31.8396H3.15537V29.9686C3.15537 29.3687 3.47312 29.0861 3.96743 29.0861C4.46142 29.0861 4.70874 29.4039 4.70874 29.9686V31.8396H5.45004V29.9686C5.45004 29.3687 5.80285 29.0861 6.26178 29.0861C6.75609 29.0861 7.00309 29.4039 7.00309 29.9686V31.8396H7.81515ZM18.7934 28.4508H17.5933V27.4271H16.852V28.4508H16.1813V29.1214H16.8519V30.6747C16.8519 31.4514 17.1696 31.9102 18.0169 31.9102C18.3346 31.9102 18.6874 31.8044 18.9347 31.6632L18.7228 31.0277C18.511 31.1689 18.264 31.2042 18.0875 31.2042C17.7345 31.2042 17.5933 30.9925 17.5933 30.6393V29.1214H18.7934V28.4508ZM25.077 28.38C24.6534 28.38 24.371 28.592 24.1945 28.8744V28.4508H23.4532V31.8396H24.1945V29.9334C24.1945 29.3687 24.4415 29.0509 24.9004 29.0509C25.0416 29.0509 25.2182 29.0863 25.3594 29.1215L25.5711 28.4156C25.4299 28.3802 25.2182 28.3802 25.077 28.3802V28.38ZM15.5812 28.7332C15.2281 28.486 14.7339 28.3802 14.2044 28.3802C13.3573 28.3802 12.7925 28.8038 12.7925 29.4745C12.7925 30.0394 13.2161 30.357 13.9574 30.4629L14.3103 30.4983C14.6987 30.5688 14.9105 30.6747 14.9105 30.8513C14.9105 31.0983 14.6281 31.2748 14.1338 31.2748C13.6396 31.2748 13.2513 31.0983 13.0041 30.9219L12.6512 31.4866C13.0395 31.769 13.569 31.9102 14.0984 31.9102C15.0869 31.9102 15.6518 31.4514 15.6518 30.8159C15.6518 30.2158 15.1928 29.898 14.4867 29.7922L14.1338 29.7569C13.816 29.7215 13.569 29.651 13.569 29.4393C13.569 29.1921 13.816 29.0509 14.2044 29.0509C14.6281 29.0509 15.0517 29.2273 15.2634 29.3333L15.5812 28.7332ZM35.2789 28.3802C34.8551 28.3802 34.5728 28.592 34.3962 28.8744V28.4508H33.6549V31.8396H34.3962V29.9334C34.3962 29.3687 34.6434 29.0509 35.1021 29.0509C35.2435 29.0509 35.4201 29.0863 35.5612 29.1215L35.773 28.4156C35.6318 28.3802 35.4201 28.3802 35.2789 28.3802ZM25.8183 30.1452C25.8183 31.1689 26.5242 31.9102 27.6186 31.9102C28.1128 31.9102 28.4658 31.8044 28.8187 31.522L28.4658 30.9219C28.1834 31.1337 27.901 31.2395 27.5833 31.2395C26.9831 31.2395 26.5596 30.8159 26.5596 30.1452C26.5596 29.5099 26.9831 29.0861 27.5833 29.0509C27.901 29.0509 28.1834 29.1567 28.4658 29.3687L28.8187 28.7685C28.4658 28.486 28.1128 28.3802 27.6186 28.3802C26.5242 28.3802 25.8183 29.1215 25.8183 30.1452ZM32.6666 30.1452V28.4508H31.9253V28.8744C31.6781 28.5568 31.3252 28.3802 30.8662 28.3802C29.9132 28.3802 29.1719 29.1215 29.1719 30.1452C29.1719 31.1689 29.9132 31.9102 30.8662 31.9102C31.3604 31.9102 31.7135 31.7338 31.9253 31.416V31.8396H32.6666V30.1452ZM29.9484 30.1452C29.9484 29.5451 30.3367 29.0509 30.9721 29.0509C31.5722 29.0509 31.9959 29.5099 31.9959 30.1452C31.9959 30.7453 31.5722 31.2395 30.9721 31.2395C30.3367 31.2041 29.9484 30.7453 29.9484 30.1452ZM21.0881 28.3802C20.0996 28.3802 19.3935 29.0861 19.3935 30.1452C19.3935 31.2042 20.0995 31.9102 21.1233 31.9102C21.6174 31.9102 22.1118 31.769 22.5001 31.4514L22.147 30.9219C21.8646 31.1337 21.5116 31.2748 21.1587 31.2748C20.6997 31.2748 20.2408 31.0631 20.1348 30.4628H22.6413V30.1806C22.6767 29.0861 22.0412 28.3802 21.0879 28.3802H21.0881ZM21.0881 29.0155C21.5468 29.0155 21.8648 29.2981 21.9352 29.8276H20.1702C20.2408 29.3687 20.5585 29.0155 21.0881 29.0155ZM39.4795 30.1452V27.1094H38.7382V28.8744C38.4911 28.5568 38.1381 28.3802 37.6792 28.3802C36.7261 28.3802 35.9848 29.1215 35.9848 30.1452C35.9848 31.1689 36.7261 31.9102 37.6792 31.9102C38.1735 31.9102 38.5265 31.7338 38.7382 31.416V31.8396H39.4795V30.1452ZM36.7615 30.1452C36.7615 29.5451 37.1497 29.0509 37.7852 29.0509C38.3853 29.0509 38.8088 29.5099 38.8088 30.1452C38.8088 30.7453 38.3853 31.2395 37.7852 31.2395C37.1497 31.2041 36.7615 30.7453 36.7615 30.1452ZM11.9805 30.1452V28.4508H11.2391V28.8744C10.992 28.5568 10.639 28.3802 10.1801 28.3802C9.22701 28.3802 8.4857 29.1215 8.4857 30.1452C8.4857 31.1689 9.22701 31.9102 10.1801 31.9102C10.6744 31.9102 11.0274 31.7338 11.2391 31.416V31.8396H11.9805V30.1452ZM9.22701 30.1452C9.22701 29.5451 9.61535 29.0509 10.2507 29.0509C10.8508 29.0509 11.2745 29.5099 11.2745 30.1452C11.2745 30.7453 10.8508 31.2395 10.2507 31.2395C9.61535 31.2041 9.22701 30.7453 9.22701 30.1452Z" fill="black"/>
<path d="M15.334 2.71875H26.4536V22.6988H15.334V2.71875Z" fill="#FF5F00"/>
<path d="M16.0408 12.7082C16.0408 8.64868 17.947 5.04796 20.8768 2.71807C18.7237 1.02368 16.0056 0 13.0404 0C6.01533 0 0.332031 5.6833 0.332031 12.7082C0.332031 19.7329 6.01533 25.4164 13.0402 25.4164C16.0054 25.4164 18.7235 24.3927 20.8768 22.6981C17.947 20.4036 16.0408 16.7677 16.0408 12.7082Z" fill="#EB001B"/>
<path d="M41.4569 12.7082C41.4569 19.7329 35.7736 25.4164 28.7487 25.4164C25.7835 25.4164 23.0654 24.3927 20.9121 22.6981C23.8773 20.3684 25.7483 16.7677 25.7483 12.7082C25.7483 8.64868 23.842 5.04796 20.9121 2.71807C23.0653 1.02368 25.7835 0 28.7487 0C35.7736 0 41.4571 5.71867 41.4571 12.7082H41.4569Z" fill="#F79E1B"/>
</g>
<defs>
<clipPath id="clip0_1379_18335">
<rect width="41.17" height="32" fill="white" transform="translate(0.330078)"/>
</clipPath>
</defs>
</svg>
