<svg xmlns="http://www.w3.org/2000/svg" viewBox="0 0 407.72 132.59"><defs><style>.cls-1{fill:#6f3f8e;}</style></defs><g id="Layer_2" data-name="Layer 2"><g id="Secondary_Logo" data-name="Secondary Logo"><g id="Secondary_Logo_Purple" data-name="Secondary Logo Purple"><path class="cls-1" d="M303.1,132.59c-14.07,0-29.49-5.21-44.6-15.06l1.84-2.83c10.16,6.62,25.82,14.51,42.76,14.51,28.38,0,53-16.42,68.6-30.2,17.89-15.77,28.43-31.72,28.93-33.81a1.5,1.5,0,0,0,.63,1.4,1.54,1.54,0,0,0,1.39.21l-2.13-2.57c1.21-1,2.11-.78,2.65-.42a1.94,1.94,0,0,1,.68,2.37C401.53,73.89,358,132.59,303.1,132.59Z"/><path class="cls-1" d="M385,78.21A192.24,192.24,0,0,1,360.48,89.6,244.79,244.79,0,0,1,334.78,98c-4.36,1.15-8.78,2.12-13.22,3-2.24.35-4.46.78-6.73,1l-3.38.4-3.41.22c-1.13.11-2.29.05-3.43.08a30.23,30.23,0,0,1-3.43-.1c-2.28-.16-4.53-.46-6.77-.83a106.61,106.61,0,0,1-13.14-3.19c4.46.61,8.9,1.22,13.34,1.54,2.22.17,4.44.3,6.64.27,1.11,0,2.2,0,3.3-.13s2.19-.09,3.29-.26a183.86,183.86,0,0,0,26.09-5.28c4.32-1.08,8.6-2.35,12.88-3.62,2.14-.61,4.27-1.3,6.41-2l6.38-2C368.1,84.34,376.53,81.36,385,78.21Z"/><path class="cls-1" d="M204.57,46.32a1.81,1.81,0,0,1-1.82-1.63c-.32-3.31,17.49-17.81,21.91-21.23C235.83,14.85,252.13,4,266.31,1.24c18.07-3.51,24.3,1.14,29.3,4.88,2.46,1.84,4.4,3.29,7.45,3.29,2.7,0,4.47-1.32,6.92-3.14,4.86-3.62,11.52-8.58,29.84-5C362.21,5.59,393.06,29.66,401.3,39l-2.53,2.23C391,32.42,360.49,8.69,339.18,4.56,322.32,1.28,316.59,5.55,312,9c-2.63,2-5.12,3.81-8.93,3.81-4.17,0-6.74-1.92-9.47-4-4.7-3.51-10-7.49-26.64-4.26C242.35,9.33,207.71,41.54,206,45a1.49,1.49,0,0,0-.15-1.29,1.57,1.57,0,0,0-1.31-.74Z"/><path class="cls-1" d="M227.58,29.67c6.3-1.77,12.46-3.94,18.93-5.34a42.49,42.49,0,0,1,5-.76c1.69-.17,3.35-.14,5-.15s3.31.1,5,.18,3.31.28,5,.54c6.63.84,12.94,3.06,19.18,4.48a73,73,0,0,0,19.05,1.93,72.43,72.43,0,0,0,9.55-.72,84.29,84.29,0,0,0,9.41-2c6.23-1.64,12.69-3.63,19.35-4.15a82.72,82.72,0,0,1,9.95-.34,53.78,53.78,0,0,1,9.88,1.49c6.41,1.54,12.6,3.58,18.94,5.24-6.49-.93-12.87-2.55-19.27-3.62a51.88,51.88,0,0,0-9.56-.9,88.39,88.39,0,0,0-9.63.74,78,78,0,0,0-9.43,1.91c-3.12.82-6.22,1.8-9.4,2.71a79.51,79.51,0,0,1-9.75,2.17,74.35,74.35,0,0,1-10,.83,74.15,74.15,0,0,1-19.85-2.2c-3.23-.82-6.37-1.81-9.48-2.72A94.1,94.1,0,0,0,266,26.73c-1.58-.32-3.18-.5-4.77-.72s-3.2-.34-4.82-.4-3.23-.2-4.8-.13a45.71,45.71,0,0,0-4.78.46C240.39,26.86,234,28.62,227.58,29.67Z"/><path class="cls-1" d="M.63,46.87A8.31,8.31,0,0,1,4,40.21a11.54,11.54,0,0,1,7.49-2.72,19.36,19.36,0,0,1,2.58.16c.74.11,1.76.33,3.08.66l2.71.66a46.08,46.08,0,0,1,.64,8.11.58.58,0,0,1-.64.48c-.94,0-1.45-.16-1.52-.48A9.28,9.28,0,0,0,16,42.34,6,6,0,0,0,11.28,40a4.88,4.88,0,0,0-3.72,1.37,5.19,5.19,0,0,0-1.29,3.69,5.61,5.61,0,0,0,.19,1.5A3.63,3.63,0,0,0,7.19,48c.37.46.67.83.9,1.13a6.42,6.42,0,0,0,1.32,1.14c.65.45,1.09.77,1.31.94s.76.52,1.59,1a15,15,0,0,0,1.5.87,19.31,19.31,0,0,0,1.76,1.13c1,.58,1.65,1,2,1.27a20.75,20.75,0,0,1,1.69,1.34,7.89,7.89,0,0,1,1.61,1.79,11.23,11.23,0,0,1,.92,2.14,8.88,8.88,0,0,1,.42,2.77,8.53,8.53,0,0,1-3.4,7A12.18,12.18,0,0,1,11,73.22a49.24,49.24,0,0,1-9.7-1.47A47.7,47.7,0,0,1,.4,67,34.49,34.49,0,0,1,0,63.21q.06-.42.84-.42,1.38,0,1.53.42a10.3,10.3,0,0,0,.74,2.08,15.18,15.18,0,0,0,1.45,2.43A6.84,6.84,0,0,0,7,69.82a7.32,7.32,0,0,0,3.5.82,5.88,5.88,0,0,0,4.11-1.48,5.64,5.64,0,0,0,1.63-4.42A4.53,4.53,0,0,0,15.94,63a5.93,5.93,0,0,0-.79-1.42,7.73,7.73,0,0,0-1.32-1.27,15.79,15.79,0,0,0-1.45-1.05c-.38-.25-1-.59-1.71-1s-1.29-.75-1.61-.92a2.63,2.63,0,0,0-.58-.42c-1-.64-1.79-1.13-2.31-1.48a24.81,24.81,0,0,1-2-1.55,10.33,10.33,0,0,1-1.87-1.93,9.89,9.89,0,0,1-1.14-2.21A8.05,8.05,0,0,1,.63,46.87Z"/><path class="cls-1" d="M39.28,38c2.37.09,4.31.13,5.82.13s3.46,0,5.85-.13,4.3-.15,5.74-.18a17.72,17.72,0,0,0,3.64-.53l1,8.06a2,2,0,0,1-1.42.37c-.28,0-.46-.08-.53-.26a7.61,7.61,0,0,0-2-3.93,5.82,5.82,0,0,0-3.79-1c-3.27,0-5,.3-5.11.89a18.22,18.22,0,0,0-.48,5v19A17.8,17.8,0,0,0,48.53,70c0,.24.5.5,1.42.76a8.51,8.51,0,0,0,1.84.39c.14,0,.21.32.21,1a2.82,2.82,0,0,1-.1.85l-2-.16c-.9-.07-1.72-.12-2.48-.16s-1.48,0-2.18,0c-1,0-2.26,0-3.93.16s-2.7.17-3.08.21a1.25,1.25,0,0,1-.21-.85c0-.63.07-1,.21-1a8.53,8.53,0,0,0,2-.36c.9-.25,1.4-.51,1.5-.79a16.24,16.24,0,0,0,.43-4.38V46.5c0-2.91-.16-4.62-.48-5.11s-1.95-.89-5-.89a5.83,5.83,0,0,0-3.8,1,7.86,7.86,0,0,0-2,3.88c0,.21-.21.31-.53.31a1.78,1.78,0,0,1-1.37-.42l1-8a17.72,17.72,0,0,0,3.64.53C35,37.84,36.9,37.91,39.28,38Z"/><path class="cls-1" d="M83.79,37.91,94.86,65.53c.53,1.4,1.06,2.69,1.58,3.85a2.58,2.58,0,0,0,1.69,1.26,6.81,6.81,0,0,0,2,.47c.14,0,.21.32.21,1a1.79,1.79,0,0,1-.1.79q-6.33-.31-6.64-.31t-6.85.31a1.41,1.41,0,0,1-.22-1c0-.51.07-.77.22-.77a6.66,6.66,0,0,0,1.73-.31c.74-.21,1.18-.46,1.32-.74a1.45,1.45,0,0,0,.16-.68,12,12,0,0,0-1-3.64l-1.85-4.9a.57.57,0,0,0-.36-.21c-1.13-.07-2.64-.11-4.54-.11s-3.9,0-6,.16c-.22,0-.32.07-.32.21l-2,4.9a14.81,14.81,0,0,0-1,3.43,1.17,1.17,0,0,0,.58,1,5,5,0,0,0,1.66.58,8.6,8.6,0,0,0,1.6.26c.11,0,.16.29.16.74a3.46,3.46,0,0,1-.1,1c-.18,0-1,0-2.48-.15s-2.67-.16-3.59-.16-2,0-3.24.13l-2.66.18a1.12,1.12,0,0,1-.21-.79c0-.63,0-1,.11-1a7.56,7.56,0,0,0,2-.44,3.21,3.21,0,0,0,1.76-1,24.31,24.31,0,0,0,2-4.11l9.81-23.72a11.18,11.18,0,0,1,2-3.79,1.32,1.32,0,0,1,.89-.37A.86.86,0,0,1,83.79,37.91ZM77.47,57.52c1.23.1,2.49.16,3.79.16s2.67-.06,4.33-.16l.1-.21-4-10.54L77.36,57.31C77.36,57.45,77.4,57.52,77.47,57.52Z"/><path class="cls-1" d="M122,37.91a15,15,0,0,1,6,1.27,12.54,12.54,0,0,1,2.88,1.69,7.37,7.37,0,0,1,2,2.63,8.33,8.33,0,0,1,.79,3.69,8.92,8.92,0,0,1-1.84,5.37,10.21,10.21,0,0,1-4.48,3.59c-.28.1-.35.28-.21.53a61.17,61.17,0,0,0,5.9,8.95,23.07,23.07,0,0,0,4,3.88,6.71,6.71,0,0,0,3.92,1.6,1.47,1.47,0,0,1,.22.85,2,2,0,0,1-.22,1,10.32,10.32,0,0,1-1.63.1,17.52,17.52,0,0,1-4.87-.63,11.35,11.35,0,0,1-3.8-1.87,21,21,0,0,1-2.66-2.4,23,23,0,0,1-2.21-3c-.49-.7-1.06-1.53-1.69-2.48L122.7,60.5c-.33-.51-.71-1-1.13-1.61a10.14,10.14,0,0,0-1.08-1.27,2.8,2.8,0,0,0-.87-.58,3.46,3.46,0,0,0-1.27-.15c-.56,0-.84.29-.84.89v7.43a16.54,16.54,0,0,0,.42,4.48c.11.42.7.77,1.77,1a11.24,11.24,0,0,0,2.34.39q.21,0,.21.9a3,3,0,0,1-.1.9q-5.81-.31-7.48-.32c-1,0-2,0-3.19.08l-2.82.13-1.06.11a1.91,1.91,0,0,1-.15-1c0-.56,0-.85.15-.85a8.84,8.84,0,0,0,2-.34q1.35-.34,1.56-.81a21.18,21.18,0,0,0,.31-4.8V45.24a20.86,20.86,0,0,0-.31-4.32q-.16-.42-1.56-.87a7.61,7.61,0,0,0-2-.45c-.14,0-.21-.26-.21-.79s.07-.84.21-1c3.73.11,6.06.16,7,.16s2.21,0,3.66-.05S121,37.91,122,37.91Zm-.84,2.64a8.53,8.53,0,0,0-3.06.37q-.57.26-.63,5.48v6.06a1.49,1.49,0,0,0,.9,1.53,6.76,6.76,0,0,0,2.47.37h1.37a4.55,4.55,0,0,0,3.51-1.85,7.22,7.22,0,0,0,1.55-4.79Q127.31,40.55,121.2,40.55Z"/><path class="cls-1" d="M157.79,38c2.37.09,4.31.13,5.82.13s3.46,0,5.85-.13,4.31-.15,5.75-.18a17.55,17.55,0,0,0,3.63-.53l1,8.06a2,2,0,0,1-1.42.37c-.28,0-.46-.08-.53-.26a7.61,7.61,0,0,0-1.95-3.93,5.8,5.8,0,0,0-3.79-1q-4.91,0-5.11.89a18.22,18.22,0,0,0-.48,5v19A17.8,17.8,0,0,0,167,70c0,.24.51.5,1.42.76a8.44,8.44,0,0,0,1.85.39c.14,0,.21.32.21,1a2.78,2.78,0,0,1-.11.85l-2-.16c-.89-.07-1.72-.12-2.47-.16s-1.49,0-2.19,0c-.95,0-2.26,0-3.93.16s-2.69.17-3.08.21a1.25,1.25,0,0,1-.21-.85c0-.63.07-1,.21-1a8.68,8.68,0,0,0,2-.36c.89-.25,1.39-.51,1.5-.79a16.75,16.75,0,0,0,.42-4.38V46.5c0-2.91-.16-4.62-.48-5.11s-1.95-.89-5-.89a5.85,5.85,0,0,0-3.8,1,7.94,7.94,0,0,0-2,3.88c0,.21-.21.31-.53.31a1.79,1.79,0,0,1-1.37-.42l1-8a17.55,17.55,0,0,0,3.63.53C153.51,37.84,155.42,37.91,157.79,38Z"/><path class="cls-1" d="M202.27,46.87a8.31,8.31,0,0,1,3.32-6.66,11.54,11.54,0,0,1,7.49-2.72,19.36,19.36,0,0,1,2.58.16c.74.11,1.76.33,3.08.66s2.22.55,2.72.66a47.12,47.12,0,0,1,.63,8.11.57.57,0,0,1-.63.48q-1.43,0-1.53-.48a9.28,9.28,0,0,0-2.27-4.74A6,6,0,0,0,212.92,40a4.88,4.88,0,0,0-3.72,1.37,5.19,5.19,0,0,0-1.29,3.69,5.61,5.61,0,0,0,.19,1.5,3.78,3.78,0,0,0,.73,1.4c.37.46.67.83.9,1.13a6.42,6.42,0,0,0,1.32,1.14c.65.45,1.09.77,1.32.94s.75.52,1.58,1a15,15,0,0,0,1.5.87,19.31,19.31,0,0,0,1.76,1.13c1,.58,1.65,1,2,1.27a20.75,20.75,0,0,1,1.69,1.34,7.89,7.89,0,0,1,1.61,1.79,11.23,11.23,0,0,1,.92,2.14,8.88,8.88,0,0,1,.42,2.77,8.53,8.53,0,0,1-3.4,7,12.18,12.18,0,0,1-7.88,2.74,49.06,49.06,0,0,1-9.69-1.47A44.69,44.69,0,0,1,202,67a34.49,34.49,0,0,1-.4-3.77q.06-.42.84-.42,1.38,0,1.53.42a10.3,10.3,0,0,0,.74,2.08,15.18,15.18,0,0,0,1.45,2.43,6.84,6.84,0,0,0,2.48,2.1,7.32,7.32,0,0,0,3.5.82,5.88,5.88,0,0,0,4.11-1.48,5.64,5.64,0,0,0,1.64-4.42,4.54,4.54,0,0,0-.35-1.74,5.93,5.93,0,0,0-.79-1.42,7.73,7.73,0,0,0-1.32-1.27A17.41,17.41,0,0,0,214,59.26c-.39-.25-1-.59-1.72-1l-1.6-.92a3.24,3.24,0,0,0-.58-.42c-1-.64-1.8-1.13-2.32-1.48a24.81,24.81,0,0,1-2-1.55,8.85,8.85,0,0,1-3-4.14A8.05,8.05,0,0,1,202.27,46.87Z"/><path class="cls-1" d="M249.9,37.91,261,65.53c.53,1.4,1,2.69,1.58,3.85a2.58,2.58,0,0,0,1.69,1.26,6.81,6.81,0,0,0,2,.47c.14,0,.21.32.21,1a1.6,1.6,0,0,1-.11.79q-6.31-.31-6.64-.31t-6.85.31a1.48,1.48,0,0,1-.21-1c0-.51.07-.77.21-.77a6.65,6.65,0,0,0,1.74-.31c.74-.21,1.18-.46,1.32-.74a1.45,1.45,0,0,0,.16-.68,12.28,12.28,0,0,0-1-3.64l-1.85-4.9a.57.57,0,0,0-.37-.21c-1.12-.07-2.63-.11-4.53-.11s-3.9,0-6,.16c-.21,0-.31.07-.31.21l-2,4.9a15.07,15.07,0,0,0-1,3.43,1.19,1.19,0,0,0,.58,1,5.2,5.2,0,0,0,1.66.58,8.67,8.67,0,0,0,1.61.26c.11,0,.16.29.16.74a3.39,3.39,0,0,1-.11,1c-.17,0-1,0-2.47-.15s-2.67-.16-3.59-.16-2,0-3.24.13l-2.66.18a1.12,1.12,0,0,1-.21-.79c0-.63,0-1,.11-1a7.43,7.43,0,0,0,2-.44,3.24,3.24,0,0,0,1.77-1,25.1,25.1,0,0,0,2-4.11l9.8-23.72a11.57,11.57,0,0,1,2-3.79,1.34,1.34,0,0,1,.9-.37A.86.86,0,0,1,249.9,37.91Zm-6.32,19.61c1.23.1,2.49.16,3.79.16s2.67-.06,4.32-.16l.11-.21-4-10.54-4.32,10.54C243.47,57.45,243.51,57.52,243.58,57.52Z"/><path class="cls-1" d="M276.84,38.12c.64,0,3.06-.1,7.28-.31a2.6,2.6,0,0,1,.08.95c0,.49-.08.74-.19.74a6,6,0,0,0-1.9.36q-1,.38-1.05,1.11a3.37,3.37,0,0,0,.47,1.37l5.59,10.22c.18.18.35.15.53-.1q2.27-3.37,4.37-7T294.13,41c0-.39-.33-.73-1-1a6.15,6.15,0,0,0-2.55-.44c-.14,0-.21-.25-.21-.74a1.77,1.77,0,0,1,.16-.95q5.31.31,6.32.31c.81,0,1.54,0,2.19,0s1.31-.08,2-.13l1.61-.13a3.44,3.44,0,0,1,.1.84c0,.56-.07.85-.21.85a7.24,7.24,0,0,0-2.19.47,4.34,4.34,0,0,0-2,1.26q-1.53,2.27-5.49,8.67T288.91,57v8.22a20.3,20.3,0,0,0,.42,4.75c.07.24.56.51,1.45.81a7.47,7.47,0,0,0,1.77.45q.21,0,.21.84a2.78,2.78,0,0,1-.11.85l-2-.16c-.88-.07-1.69-.12-2.42-.16s-1.46,0-2.16,0c-.95,0-2.24,0-3.88.16s-2.64.17-3,.21a1.25,1.25,0,0,1-.21-.85c0-.56.05-.84.16-.84a7.26,7.26,0,0,0,1.95-.42c.88-.28,1.37-.56,1.48-.84a18.92,18.92,0,0,0,.42-4.64v-7.8a3.31,3.31,0,0,0-.35-1c-.22-.51-.62-1.28-1.18-2.32s-1.06-1.93-1.48-2.69l-2.05-3.66-2.11-3.74a10.25,10.25,0,0,0-2.74-3.64,5.63,5.63,0,0,0-1.55-.66A6.36,6.36,0,0,0,270,39.5c-.1,0-.16-.18-.18-.53a1.6,1.6,0,0,1,.08-.74Q271.15,38.13,276.84,38.12Z"/><path class="cls-1" d="M312.78,45.19a15.82,15.82,0,0,0-.43-4.43c-.14-.28-.63-.55-1.47-.82a7.24,7.24,0,0,0-1.9-.39c-.14,0-.21-.27-.21-.79a2.11,2.11,0,0,1,.11-.95c.17,0,1.15,0,2.92.16s3.14.15,4.08.15c.29,0,2.53-.1,6.75-.31a2.57,2.57,0,0,1,.16.84q0,.9-.21.9a8.59,8.59,0,0,0-1.9.42c-.95.28-1.46.54-1.53.79a19.66,19.66,0,0,0-.42,4.64V65.21A20,20,0,0,0,319.2,70c.07.24.56.5,1.45.76a8.3,8.3,0,0,0,1.82.39c.14,0,.21.34.21,1a2.3,2.3,0,0,1-.1.73q-6.33-.31-6.7-.31c-.7,0-1.44,0-2.21,0l-2.55.13-2.24.13a1,1,0,0,1-.22-.73c0-.67.07-1,.22-1a8.53,8.53,0,0,0,2-.36c.9-.25,1.4-.51,1.5-.79a18.48,18.48,0,0,0,.43-4.43Z"/><path class="cls-1" d="M358.45,45.13a12.86,12.86,0,0,0-.52-4.21c-.18-.42-.77-.76-1.77-1a10.3,10.3,0,0,0-2.34-.37c-.14,0-.22-.26-.24-.77a1.8,1.8,0,0,1,.13-1c3.76.24,6,.37,6.64.37.92,0,2.09-.06,3.53-.19s2.34-.18,2.69-.18a2.16,2.16,0,0,1,.11.84c0,.6-.07.9-.22.9a10.23,10.23,0,0,0-2.26.39,3.46,3.46,0,0,0-2,1.08,12.27,12.27,0,0,0-.58,4.38v20c0,1.27.07,3.72.21,7.38a1.93,1.93,0,0,1-1.16.21c-.56,0-1.13-.4-1.69-1.21L338,43.92V65.27a14.77,14.77,0,0,0,.42,4.32q.26.63,1.95,1.08a10.6,10.6,0,0,0,2.37.44c.11,0,.17.25.18.74a2.85,2.85,0,0,1-.07,1q-6.33-.31-6.59-.31c-.95,0-2.12,0-3.51.13l-2.76.18a1.32,1.32,0,0,1-.21-.89c0-.56.07-.85.21-.85a10.1,10.1,0,0,0,2.39-.39,2.85,2.85,0,0,0,1.93-1.19,12,12,0,0,0,.53-4.42V44.45a8.7,8.7,0,0,0-.58-3.85c-.14-.24-.75-.47-1.82-.68a13.94,13.94,0,0,0-2.35-.32c-.14,0-.22-.26-.23-.79a1.46,1.46,0,0,1,.18-1q5.54.25,6.27.26c1.16,0,2.74-.09,4.74-.26a55.54,55.54,0,0,0,3.67,5.61q2.65,3.72,7.3,9.8t6.32,8.41a15.29,15.29,0,0,0,.1-2.16Z"/><path class="cls-1" d="M373.41,55.73a18,18,0,0,1,5.06-12.81,16.25,16.25,0,0,1,12.28-5.37,51.81,51.81,0,0,1,12.23,2,16.5,16.5,0,0,1,.44,3.5c.2,2.3.29,3.66.29,4.08s-.35.64-1,.64a1.9,1.9,0,0,1-1.16-.32,9.6,9.6,0,0,0-.45-1.48A10.27,10.27,0,0,0,400,44.05a7.86,7.86,0,0,0-1.85-1.92,10.55,10.55,0,0,0-2.95-1.4,13.83,13.83,0,0,0-4.24-.6,9.31,9.31,0,0,0-8.06,4.11A17.81,17.81,0,0,0,380,54.78a20.36,20.36,0,0,0,1.34,7.3,14.41,14.41,0,0,0,4.27,6,11.64,11.64,0,0,0,11.88,1.45,1.35,1.35,0,0,0,.53-1.21l0-3.8v-.36a15.77,15.77,0,0,0-.37-4.27c-.14-.46-.66-.79-1.55-1a9.72,9.72,0,0,0-2.24-.32c-.14,0-.21-.26-.21-.76a1.51,1.51,0,0,1,.21-1c.38,0,1.45,0,3.18.16s3.14.16,4.19.16l6.38-.32a2.76,2.76,0,0,1,.16.9c0,.59-.07.89-.21.89a7,7,0,0,0-1.4.32,11.39,11.39,0,0,0-1.55.53q-.69.42-.69,3.84,0,1.11,0,2.22c0,.73,0,1.14,0,1.21a4.45,4.45,0,0,0,.27,1.63,5,5,0,0,1,.26.79c0,.49-.39.92-1.16,1.27-1.4.63-2.44,1.07-3.11,1.31a26.67,26.67,0,0,1-3.82.9,34.17,34.17,0,0,1-6.24.53A15.64,15.64,0,0,1,378.29,68,17.21,17.21,0,0,1,373.41,55.73Z"/><path class="cls-1" d="M131.41,83.1c.18,0,1.9-.11,5.17-.32q.46,1.47,2.16,5.45t4.13,9.7q2.46,5.71,3.93,9.41c0,.07,0,.1.16.1a.14.14,0,0,0,.16-.16q4.63-11.11,7.37-18.28l1.9-6.12c1.06.11,2.5.16,4.32.16q2.06,0,6.27-.26a1.48,1.48,0,0,1,.16.84q0,.9-.21.9h-.1a4.33,4.33,0,0,0-2.59.84c-.52.39-.75,1.34-.68,2.85q.21,4.68.74,21.76a13.73,13.73,0,0,0,.84,4.85c.14.32.63.61,1.48.87a7.15,7.15,0,0,0,1.79.39c.14,0,.21.32.21,1a2.5,2.5,0,0,1-.11.79l-6.48-.31c-.7,0-1.44,0-2.21,0l-2.56.13-2.24.13a1.12,1.12,0,0,1-.21-.79c0-.63.07-1,.21-1a6.18,6.18,0,0,0,1.69-.34,3.26,3.26,0,0,0,1.47-.76,2.91,2.91,0,0,0,.53-1.85v-2.95l-.53-16q-.21-3.27-.63-3.27c-.1,0-.19.11-.26.32l-10.07,24.56c-.59,1.33-1.26,2-2,2a1.73,1.73,0,0,1-.53-.1l-11.8-28.36q-.37,13.13-.85,23.51a6,6,0,0,0,.16,1.63c.18.39.88.76,2.11,1.11a11.38,11.38,0,0,0,2.48.52c.14,0,.21.32.21,1a2.5,2.5,0,0,1-.11.79c-4.21-.21-6.43-.31-6.64-.31-.95,0-2.2,0-3.76.16s-2.53.15-2.88.15a1.22,1.22,0,0,1-.21-.84q0-.9.21-.9a10.53,10.53,0,0,0,2.64-.52c1.19-.35,1.88-.81,2.05-1.37a9.69,9.69,0,0,0,.58-3.53c.07-2.67.17-5.83.29-9.46s.23-6.74.32-9.3.13-4.17.13-4.8a4.91,4.91,0,0,0-.16-1.48c-.1-.28-.69-.54-1.76-.79a12.14,12.14,0,0,0-2.3-.36q-.21,0-.21-.9a1.12,1.12,0,0,1,.21-.79l2.72.18C129.4,83.05,130.5,83.1,131.41,83.1Z"/><path class="cls-1" d="M180.46,113a18.54,18.54,0,0,1,0-25.22,16.19,16.19,0,0,1,23.85,0,18.46,18.46,0,0,1,0,25.22,16.25,16.25,0,0,1-23.85,0ZM191.58,85.1a7.6,7.6,0,0,0-6.93,4.13,19.7,19.7,0,0,0-2.39,10,26,26,0,0,0,1.08,7.54A14.69,14.69,0,0,0,187,113a8.42,8.42,0,0,0,6.22,2.61,7.67,7.67,0,0,0,6.93-4.19,19.47,19.47,0,0,0,2.45-10,26.41,26.41,0,0,0-1.06-7.61,14.13,14.13,0,0,0-3.63-6.12A8.66,8.66,0,0,0,191.58,85.1Z"/><path class="cls-1" d="M230.78,82.88a15,15,0,0,1,6,1.27,12.54,12.54,0,0,1,2.88,1.69,7.37,7.37,0,0,1,2.05,2.63,8.33,8.33,0,0,1,.79,3.69,8.92,8.92,0,0,1-1.84,5.37,10.21,10.21,0,0,1-4.48,3.59c-.28.1-.35.28-.21.53a61.17,61.17,0,0,0,5.9,8.95,23.07,23.07,0,0,0,4,3.88,6.71,6.71,0,0,0,3.92,1.6,1.55,1.55,0,0,1,.22.85,2.11,2.11,0,0,1-.22.95,10.32,10.32,0,0,1-1.63.1,17.52,17.52,0,0,1-4.87-.63,11.35,11.35,0,0,1-3.8-1.87,21,21,0,0,1-2.66-2.4,23,23,0,0,1-2.21-3c-.49-.7-1.06-1.53-1.69-2.48l-1.45-2.18c-.33-.51-.71-1-1.13-1.61a10.14,10.14,0,0,0-1.08-1.27,2.8,2.8,0,0,0-.87-.58,3.46,3.46,0,0,0-1.27-.15c-.56,0-.84.29-.84.89v7.43a16.54,16.54,0,0,0,.42,4.48c.11.42.7.77,1.77,1a11.24,11.24,0,0,0,2.34.39q.21,0,.21.9a3,3,0,0,1-.1.9c-3.87-.21-6.36-.32-7.49-.32-.94,0-2,0-3.18.08l-2.82.13-1.06.11a1.88,1.88,0,0,1-.16-.95c0-.56.06-.85.16-.85a8.84,8.84,0,0,0,2-.34q1.35-.34,1.56-.81a21.18,21.18,0,0,0,.31-4.8V90.21a20.86,20.86,0,0,0-.31-4.32q-.17-.42-1.56-.87a7.61,7.61,0,0,0-2-.45c-.14,0-.21-.26-.21-.79s.07-.84.21-1c3.73.11,6.06.16,7,.16s2.21,0,3.66,0S229.73,82.88,230.78,82.88Zm-.84,2.64a8.53,8.53,0,0,0-3.06.37q-.57.26-.63,5.48v6.06a1.49,1.49,0,0,0,.9,1.53,6.76,6.76,0,0,0,2.47.37H231a4.55,4.55,0,0,0,3.51-1.85,7.22,7.22,0,0,0,1.55-4.79Q236.05,85.52,229.94,85.52Z"/><path class="cls-1" d="M263.45,83q2.31,0,8.16-.18t8.86-.19c.14,1.06.42,2.52.84,4.4l.69,3.09a1.69,1.69,0,0,1-1.11.26c-.39,0-.63-.12-.74-.37a6.62,6.62,0,0,0-6.74-4.69h-2.74c-2.6,0-3.94.23-4,.69a21.64,21.64,0,0,0-.32,4.26v8.28c0,.21.78.31,2.32.31h2.95a13.33,13.33,0,0,0,3.64-.26c.39-.17.69-.79.9-1.84.1-.53.21-1,.31-1.32s.32-.37.85-.37a1.46,1.46,0,0,1,1,.26v10a1.56,1.56,0,0,1-1,.21c-.46,0-.74-.14-.85-.42a14.07,14.07,0,0,0-.66-2.1,2.54,2.54,0,0,0-.37-.74L275,102c-.46-.28-2.08-.42-4.85-.42-2.53,0-3.8.14-3.8.42v8.17a13.92,13.92,0,0,0,.48,4.27c.17.46,1.37.68,3.58.68h2a14.23,14.23,0,0,0,6.27-1.1,6,6,0,0,0,1.9-1.85,11,11,0,0,0,1.63-3.21c0-.21.28-.32.74-.32a2.28,2.28,0,0,1,1.48.32c-.11.31-.36,1-.77,2.16s-.71,2-.92,2.55-.44,1.3-.68,2.14a14.24,14.24,0,0,0-.48,2q-2.1,0-8.72-.15t-9.3-.06l-7,.21c-.11-.1-.16-.38-.16-.84s.05-.9.16-.9a8.56,8.56,0,0,0,2-.34q1.32-.34,1.53-.81a18.92,18.92,0,0,0,.37-4.8V90.21a16.43,16.43,0,0,0-.37-4.32c-.11-.39-.6-.7-1.48-1a8.06,8.06,0,0,0-2.1-.37c-.14,0-.21-.26-.21-.79a1.45,1.45,0,0,1,.21-1C258.76,83,261.09,83,263.45,83Z"/></g></g></g></svg>