<svg xmlns="http://www.w3.org/2000/svg" viewBox="0 0 244.18 197.52"><defs><style>.cls-1{fill:#6f3f8e;}.cls-2{fill:#e0904f;}</style></defs><g id="Layer_2" data-name="Layer 2"><g id="Primary_Logo" data-name="Primary Logo"><g id="Primary_Logo_Standard" data-name="Primary Logo Standard"><path class="cls-1" d="M13.36,63.33a8.44,8.44,0,0,1,3.37-6.78,11.74,11.74,0,0,1,7.62-2.76A18.45,18.45,0,0,1,27,54a30.07,30.07,0,0,1,3.13.67c1.35.34,2.27.56,2.77.67a47.71,47.71,0,0,1,.64,8.26.58.58,0,0,1-.64.48q-1.46,0-1.56-.48A9.37,9.37,0,0,0,29,58.72a6.12,6.12,0,0,0-4.83-2.36,4.93,4.93,0,0,0-3.78,1.4,5.22,5.22,0,0,0-1.32,3.75A6.29,6.29,0,0,0,19.28,63,4,4,0,0,0,20,64.46c.38.46.68.85.91,1.15a6.62,6.62,0,0,0,1.34,1.16c.67.46,1.11.78,1.35,1s.76.53,1.6,1a17.6,17.6,0,0,0,1.53.88c.22.18.82.56,1.8,1.15s1.67,1,2.06,1.29a21.93,21.93,0,0,1,1.72,1.37A7.73,7.73,0,0,1,34,75.29a10.68,10.68,0,0,1,.93,2.17,9,9,0,0,1,.43,2.82,8.7,8.7,0,0,1-3.46,7.08,12.37,12.37,0,0,1-8,2.79A49.87,49.87,0,0,1,14,88.65a48,48,0,0,1-.89-4.86c-.26-2-.4-3.22-.4-3.83,0-.29.32-.43.86-.43.93,0,1.45.14,1.55.43a11,11,0,0,0,.76,2.12,14.46,14.46,0,0,0,1.47,2.46,7.18,7.18,0,0,0,2.52,2.15,7.61,7.61,0,0,0,3.57.83A6,6,0,0,0,27.62,86a5.76,5.76,0,0,0,1.66-4.51,4.58,4.58,0,0,0-.35-1.77,6.1,6.1,0,0,0-.8-1.44A7.26,7.26,0,0,0,26.79,77a16.39,16.39,0,0,0-1.48-1.07q-.58-.37-1.74-1L21.94,74a4,4,0,0,0-.59-.43c-1-.64-1.83-1.14-2.36-1.5a25.21,25.21,0,0,1-2.07-1.58,10.66,10.66,0,0,1-1.9-2,10.26,10.26,0,0,1-1.16-2.25A8.11,8.11,0,0,1,13.36,63.33Z"/><path class="cls-1" d="M54,54.3q3.61.14,5.93.13c1.53,0,3.52,0,5.95-.13s4.38-.16,5.85-.19a17.82,17.82,0,0,0,3.7-.54l1,8.21a2.06,2.06,0,0,1-1.44.37q-.44,0-.54-.27a7.76,7.76,0,0,0-2-4,5.91,5.91,0,0,0-3.87-1c-3.32,0-5.06.31-5.2.92a18.75,18.75,0,0,0-.48,5V82.16a18.35,18.35,0,0,0,.48,4.66c0,.25.52.51,1.45.78a8.43,8.43,0,0,0,1.88.4c.14,0,.21.32.21,1a2.57,2.57,0,0,1-.11.86l-2.06-.16c-.91-.08-1.75-.13-2.52-.17s-1.51,0-2.23,0c-1,0-2.29,0-4,.16s-2.75.18-3.14.22a1.28,1.28,0,0,1-.21-.86c0-.65.07-1,.21-1a8.47,8.47,0,0,0,2-.37q1.37-.37,1.53-.81a16.73,16.73,0,0,0,.43-4.45V63c0-3-.16-4.7-.48-5.2s-2-.92-5.1-.92a5.88,5.88,0,0,0-3.86,1,8,8,0,0,0-2,3.94c0,.22-.21.32-.53.32a1.8,1.8,0,0,1-1.4-.43l1-8.15a17.73,17.73,0,0,0,3.7.54C49.6,54.14,51.54,54.21,54,54.3Z"/><path class="cls-1" d="M100.18,54.22l11.27,28.1c.53,1.43,1.07,2.73,1.6,3.91a2.62,2.62,0,0,0,1.72,1.29,7.17,7.17,0,0,0,2,.48c.14,0,.21.32.21,1a1.81,1.81,0,0,1-.1.8l-6.76-.32c-.25,0-2.58.11-7,.32a1.45,1.45,0,0,1-.22-1c0-.52.07-.78.22-.78a6.64,6.64,0,0,0,1.77-.32c.75-.21,1.19-.46,1.34-.75a1.63,1.63,0,0,0,.16-.7,12.34,12.34,0,0,0-1-3.7l-1.88-5a.59.59,0,0,0-.37-.21c-1.15-.07-2.69-.11-4.62-.11s-4,.06-6.11.16c-.21,0-.32.08-.32.22l-2,5a15.29,15.29,0,0,0-1,3.48,1.2,1.2,0,0,0,.59,1.07,5.07,5.07,0,0,0,1.69.59A9.18,9.18,0,0,0,93,88c.1,0,.16.29.16.75a3.5,3.5,0,0,1-.11,1c-.18,0-1,0-2.52-.16s-2.72-.16-3.65-.16-2,0-3.3.14l-2.7.18a1.09,1.09,0,0,1-.22-.8c0-.65,0-1,.11-1a7.76,7.76,0,0,0,2.06-.45,3.38,3.38,0,0,0,1.8-1,25.52,25.52,0,0,0,2-4.18l10-24.14a11.66,11.66,0,0,1,2-3.86,1.35,1.35,0,0,1,.91-.37A.87.87,0,0,1,100.18,54.22Zm-6.43,20c1.25.1,2.54.16,3.86.16s2.72-.06,4.4-.16l.1-.22L98,63.23,93.64,74C93.64,74.09,93.67,74.17,93.75,74.17Z"/><path class="cls-1" d="M140,54.22a15.12,15.12,0,0,1,2.92.29,16.2,16.2,0,0,1,3.17,1A12.91,12.91,0,0,1,149,57.22a7.43,7.43,0,0,1,2.09,2.68,8.46,8.46,0,0,1,.81,3.75A9.1,9.1,0,0,1,150,69.12a10.3,10.3,0,0,1-4.56,3.65q-.43.17-.21.54a63.25,63.25,0,0,0,6,9.12,23.47,23.47,0,0,0,4.05,3.94,6.84,6.84,0,0,0,4,1.63,1.56,1.56,0,0,1,.21.86,2.19,2.19,0,0,1-.21,1,10.88,10.88,0,0,1-1.67.1,17.85,17.85,0,0,1-5-.64,11.52,11.52,0,0,1-3.86-1.9A21.78,21.78,0,0,1,146.11,85a24.23,24.23,0,0,1-2.25-3q-.75-1.06-1.71-2.52c-.65-1-1.14-1.71-1.48-2.22s-.72-1.07-1.15-1.64a11.39,11.39,0,0,0-1.1-1.29,2.92,2.92,0,0,0-.89-.59,3.46,3.46,0,0,0-1.28-.16c-.58,0-.86.31-.86.91V82a16.67,16.67,0,0,0,.43,4.56c.1.42.7.77,1.79,1A11.19,11.19,0,0,0,140,88c.14,0,.21.31.21.91a3.16,3.16,0,0,1-.1.92c-3.94-.22-6.47-.33-7.62-.33-1,0-2.05,0-3.24.09l-2.87.13-1.08.11a2,2,0,0,1-.16-1c0-.57.06-.86.16-.86a8.77,8.77,0,0,0,2.07-.35c.91-.23,1.44-.51,1.58-.83a20.91,20.91,0,0,0,.32-4.88V61.67a20.75,20.75,0,0,0-.32-4.4c-.11-.28-.63-.58-1.58-.88a7.61,7.61,0,0,0-2.07-.46c-.14,0-.21-.27-.21-.8s.07-.86.21-1q5.69.17,7.14.16c1,0,2.24,0,3.73,0S138.93,54.22,140,54.22Zm-.86,2.68a8.79,8.79,0,0,0-3.11.37c-.39.18-.61,2-.64,5.58V69a1.5,1.5,0,0,0,.91,1.55,6.81,6.81,0,0,0,2.52.38h1.39a4.61,4.61,0,0,0,3.57-1.88,7.29,7.29,0,0,0,1.58-4.88Q145.36,56.9,139.14,56.9Z"/><path class="cls-1" d="M175.59,54.3c2.42.09,4.39.13,5.93.13s3.52,0,5.95-.13,4.38-.16,5.85-.19a17.73,17.73,0,0,0,3.7-.54l1,8.21a2.09,2.09,0,0,1-1.45.37q-.43,0-.54-.27a7.76,7.76,0,0,0-2-4,5.88,5.88,0,0,0-3.86-1q-5,0-5.2.92a18.25,18.25,0,0,0-.49,5V82.16a17.84,17.84,0,0,0,.49,4.66q0,.38,1.44.78a8.43,8.43,0,0,0,1.88.4c.14,0,.22.32.22,1a2.85,2.85,0,0,1-.11.86l-2.07-.16c-.91-.08-1.75-.13-2.52-.17s-1.51,0-2.22,0c-1,0-2.3,0-4,.16s-2.74.18-3.14.22a1.28,1.28,0,0,1-.21-.86c0-.65.07-1,.21-1a8.62,8.62,0,0,0,2-.37c.91-.25,1.42-.52,1.52-.81a16.73,16.73,0,0,0,.43-4.45V63c0-3-.16-4.7-.48-5.2s-2-.92-5.09-.92a5.91,5.91,0,0,0-3.87,1,7.93,7.93,0,0,0-2,3.94c0,.22-.22.32-.54.32a1.76,1.76,0,0,1-1.39-.43l1-8.15a17.82,17.82,0,0,0,3.7.54C171.24,54.14,173.18,54.21,175.59,54.3Z"/><path class="cls-1" d="M60.63,161.8c.18,0,1.93-.11,5.26-.32q.48,1.5,2.2,5.55t4.21,9.87q2.49,5.82,4,9.57c0,.07.06.11.16.11a.15.15,0,0,0,.17-.16q4.71-11.32,7.5-18.61l1.93-6.22c1.08.1,2.54.16,4.4.16,1.4,0,3.52-.09,6.38-.27a1.52,1.52,0,0,1,.17.86c0,.6-.08.91-.22.91h-.11a4.29,4.29,0,0,0-2.62.86c-.54.39-.77,1.35-.7,2.89q.21,4.77.75,22.15a14,14,0,0,0,.86,4.94c.14.32.64.61,1.5.88a7.08,7.08,0,0,0,1.82.4c.15,0,.22.32.22,1a2.57,2.57,0,0,1-.11.8l-6.6-.32c-.71,0-1.46,0-2.25.05l-2.6.14-2.28.13a1.15,1.15,0,0,1-.21-.8c0-.65.07-1,.21-1a6.13,6.13,0,0,0,1.72-.35,3.41,3.41,0,0,0,1.5-.77,3,3,0,0,0,.53-1.88v-3l-.53-16.31c-.15-2.21-.36-3.32-.65-3.32-.1,0-.19.1-.26.32l-10.25,25c-.61,1.36-1.28,2-2,2a1.78,1.78,0,0,1-.54-.11l-12-28.85q-.39,13.35-.86,23.92a5.82,5.82,0,0,0,.16,1.66c.18.39.89.77,2.14,1.13a12.06,12.06,0,0,0,2.52.53c.15,0,.22.32.22,1a2.57,2.57,0,0,1-.11.8q-6.43-.31-6.76-.32c-1,0-2.24.05-3.83.16s-2.57.16-2.92.16a1.2,1.2,0,0,1-.22-.86c0-.6.07-.91.22-.91a11.07,11.07,0,0,0,2.68-.53c1.21-.36,1.91-.83,2.09-1.4a9.94,9.94,0,0,0,.59-3.59q.11-4.08.29-9.63t.33-9.46c.09-2.61.13-4.24.13-4.88a5.14,5.14,0,0,0-.16-1.51c-.11-.28-.71-.55-1.8-.8a12.25,12.25,0,0,0-2.33-.38c-.14,0-.21-.3-.21-.91a1.15,1.15,0,0,1,.21-.8l2.76.19C58.59,161.75,59.7,161.8,60.63,161.8Z"/><path class="cls-1" d="M110.55,192.21a18.85,18.85,0,0,1,0-25.66,16.46,16.46,0,0,1,24.27,0,18.77,18.77,0,0,1,0,25.66,16.52,16.52,0,0,1-24.27,0Zm11.32-28.37a7.7,7.7,0,0,0-7.05,4.21,19.88,19.88,0,0,0-2.44,10.16,26.2,26.2,0,0,0,1.1,7.67,14.93,14.93,0,0,0,3.72,6.3,8.61,8.61,0,0,0,6.33,2.66,7.77,7.77,0,0,0,7.05-4.27,19.7,19.7,0,0,0,2.5-10.16,27.34,27.34,0,0,0-1.07-7.75,14.39,14.39,0,0,0-3.7-6.22A8.79,8.79,0,0,0,121.87,163.84Z"/><path class="cls-1" d="M161.76,161.59a15.12,15.12,0,0,1,2.92.29,16.2,16.2,0,0,1,3.17,1,12.91,12.91,0,0,1,2.92,1.72,7.43,7.43,0,0,1,2.09,2.68,8.46,8.46,0,0,1,.81,3.75,9.13,9.13,0,0,1-1.88,5.47,10.3,10.3,0,0,1-4.56,3.65q-.43.17-.21.54a63.25,63.25,0,0,0,6,9.12,23.47,23.47,0,0,0,4,3.94,6.84,6.84,0,0,0,4,1.63,1.56,1.56,0,0,1,.21.86,2.19,2.19,0,0,1-.21,1,10.83,10.83,0,0,1-1.66.1,17.87,17.87,0,0,1-5-.64,11.52,11.52,0,0,1-3.86-1.9,21.78,21.78,0,0,1-2.71-2.44,24.23,24.23,0,0,1-2.25-3q-.75-1.06-1.71-2.52c-.65-1-1.14-1.71-1.48-2.22s-.72-1.07-1.15-1.64a11.39,11.39,0,0,0-1.1-1.29,2.92,2.92,0,0,0-.89-.59,3.46,3.46,0,0,0-1.28-.16c-.58,0-.86.31-.86.91v7.57a16.53,16.53,0,0,0,.43,4.55c.1.43.7.78,1.79,1.05a11.19,11.19,0,0,0,2.39.4c.14,0,.22.31.22.91a3.11,3.11,0,0,1-.11.92c-3.94-.22-6.47-.33-7.62-.33-1,0-2,0-3.24.08l-2.87.14-1.07.11a1.83,1.83,0,0,1-.17-1c0-.57.06-.86.17-.86a8.79,8.79,0,0,0,2.06-.35c.91-.23,1.44-.51,1.58-.83a20.91,20.91,0,0,0,.32-4.88V169a20.75,20.75,0,0,0-.32-4.4c-.1-.28-.63-.58-1.58-.88a7.64,7.64,0,0,0-2.06-.46c-.15,0-.22-.27-.22-.8s.07-.86.22-1c3.79.11,6.16.16,7.13.16s2.24,0,3.73-.05S160.69,161.59,161.76,161.59Zm-.86,2.68a8.79,8.79,0,0,0-3.11.37c-.39.18-.61,2-.64,5.58v6.17a1.5,1.5,0,0,0,.91,1.55,6.81,6.81,0,0,0,2.52.38H162a4.6,4.6,0,0,0,3.56-1.88,7.29,7.29,0,0,0,1.58-4.88Q167.12,164.27,160.9,164.27Z"/><path class="cls-1" d="M195,161.75c1.57,0,4.35-.07,8.31-.19s7-.19,9-.19c.15,1.07.43,2.57.86,4.48s.66,3,.7,3.14a1.66,1.66,0,0,1-1.13.26c-.39,0-.64-.12-.75-.37a6.74,6.74,0,0,0-6.86-4.77h-2.79q-4,0-4.08.69a22.55,22.55,0,0,0-.32,4.35v8.42c0,.21.79.32,2.36.32h3a13.5,13.5,0,0,0,3.7-.27c.4-.18.7-.8.92-1.88a12.76,12.76,0,0,1,.32-1.34c0-.25.32-.37.86-.37a1.45,1.45,0,0,1,1,.27v10.13a1.55,1.55,0,0,1-1,.22c-.47,0-.75-.15-.86-.43a18,18,0,0,0-.67-2.15,3.09,3.09,0,0,0-.38-.75l-.45-.32c-.47-.29-2.11-.43-4.94-.43-2.57,0-3.86.14-3.86.43v8.31a14.43,14.43,0,0,0,.48,4.35c.18.46,1.4.69,3.65.69h2a14.42,14.42,0,0,0,6.38-1.12,6.24,6.24,0,0,0,1.93-1.88,11.32,11.32,0,0,0,1.66-3.27c0-.22.29-.32.75-.32a2.25,2.25,0,0,1,1.5.32c-.1.32-.36,1-.77,2.2s-.73,2-.94,2.6-.45,1.31-.7,2.17a14.87,14.87,0,0,0-.48,2.09q-2.15,0-8.88-.16c-4.49-.11-7.64-.12-9.46,0l-7.14.21c-.11-.1-.16-.39-.16-.86s.05-.91.16-.91a8.43,8.43,0,0,0,2-.35c.89-.23,1.41-.51,1.56-.83a19.49,19.49,0,0,0,.37-4.88V169a17.06,17.06,0,0,0-.37-4.4c-.11-.39-.61-.71-1.51-1a8.47,8.47,0,0,0-2.14-.38c-.14,0-.22-.27-.22-.8a1.48,1.48,0,0,1,.22-1C190.23,161.67,192.61,161.75,195,161.75Z"/><path class="cls-1" d="M.74,114.37A9.7,9.7,0,0,1,4.6,106.6a13.47,13.47,0,0,1,8.72-3.16,20.41,20.41,0,0,1,3,.19,35.07,35.07,0,0,1,3.59.76c1.54.39,2.59.65,3.17.77a55,55,0,0,1,.73,9.46.67.67,0,0,1-.73.55c-1.11,0-1.7-.19-1.78-.55a10.83,10.83,0,0,0-2.64-5.53,7,7,0,0,0-5.53-2.7A5.68,5.68,0,0,0,8.81,108a6,6,0,0,0-1.5,4.3A7.05,7.05,0,0,0,7.52,114a4.23,4.23,0,0,0,.86,1.63c.43.53.78,1,1,1.32A7.32,7.32,0,0,0,11,118.3q1.14.8,1.53,1.11c.27.2.88.6,1.85,1.19a19.3,19.3,0,0,0,1.75,1c.24.2.93.64,2.05,1.32s1.92,1.16,2.37,1.47,1.1.83,2,1.56a8.77,8.77,0,0,1,1.87,2.09,12.86,12.86,0,0,1,1.08,2.49,10.24,10.24,0,0,1,.49,3.22,10,10,0,0,1-4,8.11,14.19,14.19,0,0,1-9.18,3.19,56.86,56.86,0,0,1-11.3-1.72c-.36-1.47-.7-3.33-1-5.56A40.62,40.62,0,0,1,0,133.4c0-.32.37-.49,1-.49,1.07,0,1.66.17,1.78.49a12.32,12.32,0,0,0,.86,2.43,17.62,17.62,0,0,0,1.69,2.82,8,8,0,0,0,2.89,2.46,8.65,8.65,0,0,0,4.08.95,6.87,6.87,0,0,0,4.79-1.72,6.58,6.58,0,0,0,1.9-5.16,5.24,5.24,0,0,0-.4-2,6.66,6.66,0,0,0-.92-1.66A9.09,9.09,0,0,0,16.12,130c-.68-.54-1.24-.94-1.69-1.23s-1.12-.69-2-1.2-1.5-.87-1.87-1.07a3.62,3.62,0,0,0-.67-.49c-1.19-.74-2.09-1.31-2.71-1.72s-1.4-1-2.36-1.81a12.15,12.15,0,0,1-2.18-2.25,11.6,11.6,0,0,1-1.32-2.57A9.27,9.27,0,0,1,.74,114.37Z"/><path class="cls-1" d="M56.23,103.93l12.89,32.18c.62,1.63,1.23,3.13,1.84,4.48a3,3,0,0,0,2,1.47,8,8,0,0,0,2.33.55c.17,0,.25.37.25,1.11a2.1,2.1,0,0,1-.12.92q-7.38-.37-7.74-.37t-8,.37a1.69,1.69,0,0,1-.25-1.14c0-.59.08-.89.25-.89a8,8,0,0,0,2-.36c.86-.25,1.37-.54,1.54-.86a1.84,1.84,0,0,0,.18-.8,14.32,14.32,0,0,0-1.16-4.24l-2.15-5.71a.7.7,0,0,0-.43-.24c-1.31-.09-3.07-.13-5.28-.13s-4.55.06-7,.19c-.25,0-.37.08-.37.24l-2.33,5.71a17.45,17.45,0,0,0-1.17,4,1.37,1.37,0,0,0,.67,1.23,6.24,6.24,0,0,0,1.94.68,10.84,10.84,0,0,0,1.87.3c.12,0,.19.33.19.86a4,4,0,0,1-.13,1.17q-.3,0-2.88-.18c-1.72-.13-3.11-.19-4.18-.19s-2.32,0-3.77.16l-3.1.21a1.27,1.27,0,0,1-.25-.92q0-1.11.12-1.11a8.86,8.86,0,0,0,2.37-.52,3.78,3.78,0,0,0,2.05-1.2,28.83,28.83,0,0,0,2.34-4.78l11.42-27.63c.94-2.46,1.69-3.93,2.27-4.42a1.54,1.54,0,0,1,1-.43A1,1,0,0,1,56.23,103.93Zm-7.37,22.84c1.43.13,2.91.19,4.42.19s3.11-.06,5-.19l.12-.24-4.67-12.28-5,12.28Q48.74,126.77,48.86,126.77Z"/><path class="cls-1" d="M85.9,104.18c.74,0,3.56-.12,8.48-.37a2.89,2.89,0,0,1,.09,1.11c0,.57-.09.85-.22.85a7,7,0,0,0-2.21.43q-1.23.43-1.23,1.29a3.89,3.89,0,0,0,.56,1.6L97.88,121c.2.21.4.17.61-.12q2.64-3.93,5.1-8.11t2.45-5.28c0-.45-.38-.85-1.13-1.19a7.16,7.16,0,0,0-3-.53c-.17,0-.25-.28-.25-.85a2,2,0,0,1,.19-1.11c4.13.25,6.59.37,7.36.37q1.41,0,2.55-.06c.76,0,1.54-.1,2.34-.16l1.87-.15a4.11,4.11,0,0,1,.12,1c0,.66-.08,1-.24,1a8.5,8.5,0,0,0-2.55.56A5,5,0,0,0,111,107.8q-1.77,2.64-6.38,10.1T100,126.16v9.58a23.93,23.93,0,0,0,.49,5.52c.09.29.65.61,1.69,1a8.76,8.76,0,0,0,2.06.53c.16,0,.24.32.24,1a3.22,3.22,0,0,1-.12,1l-2.33-.18c-1-.08-2-.15-2.83-.19s-1.69-.06-2.51-.06c-1.11,0-2.61.06-4.52.19l-3.53.24a1.43,1.43,0,0,1-.24-1c0-.66.06-1,.18-1a8.67,8.67,0,0,0,2.27-.49c1-.33,1.6-.66,1.72-1a21.76,21.76,0,0,0,.49-5.4v-9.09a3.88,3.88,0,0,0-.39-1.19c-.27-.6-.73-1.5-1.39-2.71s-1.22-2.25-1.71-3.13-1.29-2.3-2.4-4.26-1.92-3.42-2.46-4.36a11.85,11.85,0,0,0-3.19-4.24,6.14,6.14,0,0,0-1.81-.77,7.63,7.63,0,0,0-1.75-.34c-.12,0-.19-.2-.21-.61a1.79,1.79,0,0,1,.09-.86Q79.27,104.18,85.9,104.18Z"/><path class="cls-1" d="M130.67,112.41a18.28,18.28,0,0,0-.5-5.16c-.16-.33-.73-.65-1.71-1a8.16,8.16,0,0,0-2.22-.46c-.16,0-.24-.31-.24-.92a2.54,2.54,0,0,1,.12-1.11c.21,0,1.34.06,3.41.18s3.65.19,4.76.19c.32,0,3-.12,7.86-.37a3.25,3.25,0,0,1,.18,1q0,1-.24,1a9.74,9.74,0,0,0-2.21.49c-1.11.32-1.7.63-1.79.92a23.25,23.25,0,0,0-.49,5.4v23.09a22.59,22.59,0,0,0,.56,5.52c.08.29.64.59,1.68.89a9.28,9.28,0,0,0,2.12.46c.17,0,.25.39.25,1.17a2.79,2.79,0,0,1-.12.86q-7.38-.37-7.8-.37-1.23,0-2.58.06l-3,.16-2.61.15a1.21,1.21,0,0,1-.24-.86q0-1.17.24-1.17a9.6,9.6,0,0,0,2.3-.43c1.05-.28,1.63-.59,1.75-.92a21.28,21.28,0,0,0,.5-5.15Z"/><path class="cls-1" d="M204.21,124.69a21,21,0,0,1,5.9-14.92,18.89,18.89,0,0,1,14.3-6.27,60.63,60.63,0,0,1,14.25,2.27,19.73,19.73,0,0,1,.52,4.09c.22,2.68.34,4.26.34,4.76s-.41.73-1.23.73a2.15,2.15,0,0,1-1.35-.37,9.84,9.84,0,0,0-1.75-3.89,9.21,9.21,0,0,0-2.15-2.25,12.42,12.42,0,0,0-3.44-1.62,16,16,0,0,0-4.94-.71,10.87,10.87,0,0,0-9.4,4.79q-3.37,4.78-3.37,12.28a23.59,23.59,0,0,0,1.56,8.5,16.68,16.68,0,0,0,5,6.94,13.53,13.53,0,0,0,13.84,1.69,1.61,1.61,0,0,0,.62-1.41l-.07-4.42v-.43a18.53,18.53,0,0,0-.43-5c-.16-.53-.76-.92-1.81-1.16a11.5,11.5,0,0,0-2.61-.37c-.16,0-.24-.3-.24-.89a1.8,1.8,0,0,1,.24-1.14c.45,0,1.69.06,3.72.19s3.65.18,4.88.18l7.43-.37a3.41,3.41,0,0,1,.18,1c0,.69-.08,1-.24,1a7.59,7.59,0,0,0-1.63.37,15.82,15.82,0,0,0-1.81.61c-.53.33-.8,1.82-.8,4.49,0,.85,0,1.71,0,2.57s0,1.33,0,1.42a5.18,5.18,0,0,0,.31,1.9,5.88,5.88,0,0,1,.31.92q0,.85-1.35,1.47c-1.64.74-2.85,1.25-3.63,1.54a32.36,32.36,0,0,1-4.45,1,39.58,39.58,0,0,1-7.27.62,18.27,18.27,0,0,1-13.79-6A20,20,0,0,1,204.21,124.69Z"/><path class="cls-1" d="M168.5,142.61a12.53,12.53,0,0,1-2.77-.52c-1.31-.35-2.07-.77-2.27-1.26a17,17,0,0,1-.49-5V104.09c-.51,0-1.55,0-2,0-.57,0-3-.11-7.3-.31-.17.16-.24.55-.22,1.17s.12.92.28.92a15.61,15.61,0,0,1,2.73.37c1.25.24,2,.51,2.12.79a10.05,10.05,0,0,1,.68,4.49v24.06a14,14,0,0,1-.62,5.16,3.3,3.3,0,0,1-2.24,1.38,11.52,11.52,0,0,1-2.79.46c-.17,0-.25.33-.25,1a1.49,1.49,0,0,0,.25,1l3.22-.21c1.62-.11,3-.16,4.08-.16q.31,0,7.68.37a3.39,3.39,0,0,0,.09-1.17C168.69,142.9,168.62,142.61,168.5,142.61Z"/><path class="cls-2" d="M190.62,108.32c15-11.83,23.15-27.06,23.15-43.23,0-35.89-41.25-65.09-92-65.09C76.29,0,38.18,22.34,30.89,52.57l2.44.59.35.08c7-29,43.93-50.36,88.14-50.36,49.11,0,89.06,27.91,89.06,62.21,0,16.26-8.84,31.58-24.91,43.13l.2.28h0a8.59,8.59,0,0,1,.62,3.84V129a16.16,16.16,0,0,1-.13,2.52q-2-2.7-7.36-9.79t-8.51-11.42a69.11,69.11,0,0,1-4.06-6.17.67.67,0,0,0-.65-.33l-.94.08v9.89l22.26,29.53c.66.94,1.31,1.41,2,1.41a2.31,2.31,0,0,0,1.35-.24q-.25-6.39-.25-8.6V112.65Z"/></g></g></g></svg>