<svg width="46" height="16" viewBox="0 0 46 16" fill="none" xmlns="http://www.w3.org/2000/svg">
<path d="M23.8441 5.38028C23.8187 7.38206 25.6281 8.49906 26.9911 9.16325C28.3914 9.84465 28.8618 10.2816 28.8562 10.8911C28.8458 11.8237 27.7392 12.2353 26.7037 12.2513C24.8972 12.2793 23.8467 11.7635 23.0117 11.3734L22.3609 14.4187C23.1987 14.8048 24.7501 15.1415 26.3589 15.1562C30.1352 15.1562 32.6058 13.2921 32.6192 10.4019C32.634 6.73386 27.5456 6.53083 27.5803 4.8913C27.5923 4.39416 28.0667 3.86364 29.1062 3.72876C29.6207 3.66062 31.041 3.60847 32.6514 4.35001L33.2834 1.40366C32.4174 1.08834 31.3044 0.786403 29.9186 0.786403C26.3643 0.786403 23.8643 2.67589 23.8441 5.38028ZM39.3565 1.04019C38.667 1.04019 38.0859 1.44242 37.8265 2.05968L32.4322 14.9398H36.2058L36.9567 12.8645H41.5679L42.0035 14.9398H45.3295L42.4272 1.04019H39.3565ZM39.8844 4.795L40.9735 10.0145H37.9909L39.8844 4.795ZM19.2688 1.04036L16.2943 14.9397H19.8903L22.8634 1.04002H19.2688M13.9492 1.04002L10.2064 10.5008L8.6924 2.4567C8.51475 1.55871 7.81319 1.04019 7.0341 1.04019H0.915774L0.830078 1.44381C2.08614 1.71637 3.51326 2.15598 4.37787 2.62635C4.90699 2.91368 5.05787 3.16486 5.2317 3.84765L8.09931 14.9398H11.8993L17.7253 1.04019H13.9492" fill="url(#paint0_linear_1379_18334)"/>
<defs>
<linearGradient id="paint0_linear_1379_18334" x1="21.2883" y1="15.4445" x2="21.7042" y2="0.686465" gradientUnits="userSpaceOnUse">
<stop stop-color="#222357"/>
<stop offset="1" stop-color="#254AA5"/>
</linearGradient>
</defs>
</svg>
